# xmcd CD database file
#
# Track frame offsets:
#	150
#	17858
#	38563
#	58798
#	77187
#	94948
#	113611
#	147961
#	170398
#	186745
#	197817
#	209322
#	225813
#	237558
#	253640
#	268318
#
# Disc length: 3787 seconds
#
# Revision: 0
# Processed by: cddbd v1.5.2PL0 Copyright (c) Steve Scherf et al.
# Submitted via: CDex 1.70beta2
#
DISCID=e40ec910
DTITLE=Late Night Moods Vol2 - CD2
DYEAR=2008
DGENRE=Jazz
TTITLE0=Nicola Conte - Sea And Sand
TTITLE1=3-11 Porter - Surround Me With Your Love
TTITLE2=Marc Jordan and Molly Johnson - Let's Waste Some Time
TTITLE3=Ilya - Bliss
TTITLE4=Angela McCluskey - It's Been Done
TTITLE5=Massive Attack - Be Thankful For What You've Got
TTITLE6=N.E.R.D. - Provider (Zero 7 Remix)
TTITLE7=Freddie Jackson - Do Me Again (Let Freddie Do You Edit)
TTITLE8=Royskopp - What else Is There?
TTITLE9=Bryan Ferry - Falling In Love Again
TTITLE10=Julie London - Fly Me To The Moon
TTITLE11=Frankie Vaughan - Unchained Melody
TTITLE12=Denny williams - Moon River
TTITLE13=Billie Jo Spears - Always On My Mind
TTITLE14=Mel Torme - Careless Hans
TTITLE15=Candy Staton - He Called Me Baby
EXTD=YEAR: 2008
EXTT0=
EXTT1=
EXTT2=
EXTT3=
EXTT4=
EXTT5=
EXTT6=
EXTT7=
EXTT8=
EXTT9=
EXTT10=
EXTT11=
EXTT12=
EXTT13=
EXTT14=
EXTT15=
PLAYORDER=
